PathFileType	4	(X/Y/Z)	C:\Users\dbl\Desktop\LZH\BX\Trimmed_bx_n_10_901.trc
DataRate	CameraRate	NumFrames	NumMarkers	Units	OrigDataRate	OrigDataStartFrame	OrigNumFrames
50.00	50.00	      4	43	mm	50.00	380	      1518
Frame#	Time	Top.Head			R.Acromium			L.Acromium			Sternum			R.ASIS			L.ASIS			V.Sacral			R.Thigh.Upper			R.Thigh.Front			R.Thigh.Rear			R.Knee.Lat			R.Knee.Med			R.Shank.Upper			R.Shank.Front			R.Shank.Rear			R.Ankle.Lat			R.Midfoot.Lat			R.Toe.Lat			R.Toe.Tip			R.Toe.Med			R.Ankle.Med			R.Midfoot.Sup			R.Heel			L.Thigh.Upper			L.Thigh.Front			L.Thigh.Rear			L.Knee.Lat			L.Knee.Med			L.Shank.Upper			L.Shank.Front			L.Shank.Rear			L.Ankle.Lat			L.Midfoot.Lat			L.Toe.Lat			L.Toe.Tip			L.Toe.Med			L.Ankle.Med			L.Midfoot.Sup			L.Heel			origin1 front left			origin2 front right			origin 3 back right			origin 4 back leftt			
		X1	Y1	Z1	X2	Y2	Z2	X3	Y3	Z3	X4	Y4	Z4	X5	Y5	Z5	X6	Y6	Z6	X7	Y7	Z7	X8	Y8	Z8	X9	Y9	Z9	X10	Y10	Z10	X11	Y11	Z11	X12	Y12	Z12	X13	Y13	Z13	X14	Y14	Z14	X15	Y15	Z15	X16	Y16	Z16	X17	Y17	Z17	X18	Y18	Z18	X19	Y19	Z19	X20	Y20	Z20	X21	Y21	Z21	X22	Y22	Z22	X23	Y23	Z23	X24	Y24	Z24	X25	Y25	Z25	X26	Y26	Z26	X27	Y27	Z27	X28	Y28	Z28	X29	Y29	Z29	X30	Y30	Z30	X31	Y31	Z31	X32	Y32	Z32	X33	Y33	Z33	X34	Y34	Z34	X35	Y35	Z35	X36	Y36	Z36	X37	Y37	Z37	X38	Y38	Z38	X39	Y39	Z39	X40	Y40	Z40	X41	Y41	Z41	X42	Y42	Z42	X43	Y43	Z43	

380	7.580	-39.64557	236.44791	1097.86035	-234.61066	84.37750	933.68427	-250.08453	375.20413	949.09357	-434.44635	219.12950	954.75732	-705.21826	129.02696	960.76990	-681.04468	355.01883	960.83105	-842.04144	251.88292	1097.92346	-782.60449	80.79803	819.69202	-690.49585	146.63008	802.72314	-775.40442	93.51032	702.83478	-758.41248	120.32163	592.99457	-735.67731	229.93910	553.45563	-771.33081	118.54470	525.90112	-696.33081	174.32738	527.26929	-766.58667	111.20525	473.60370	-689.90564	143.85271	212.34471	-604.05603	95.70462	168.11122	-556.46948	78.86871	166.31197	-482.11591	120.35242	156.99670	-531.07410	170.02852	161.75035	-650.25690	224.56757	226.38326	-596.92883	202.17303	175.01920	-724.54578	210.01866	167.70123	-759.44788	447.74188	846.05212	-678.42438	379.98511	809.08734	-757.50305	440.30862	728.64807	-743.81006	413.72284	594.73755	-723.93762	309.48386	563.35681	-748.60492	417.61511	550.21265	-692.83313	355.92368	536.29523	-785.61377	426.08902	477.71249	-675.46777	417.21426	215.73277	-570.68695	455.64038	165.26468	-532.57996	465.57190	157.11485	-473.03964	412.37970	163.48932	-519.79834	372.74194	175.39574	-648.30554	325.06219	212.72554	-591.86066	338.73956	173.34961	-728.25128	349.75137	162.39044	-443.95773	448.31787	146.00168	-450.80725	74.83764	143.76500	-806.45996	82.59136	142.02036	-798.80493	457.48755	144.88095	
381	7.600	-39.70905	236.52690	1099.43274	-234.07611	83.87510	936.27789	-250.01749	375.82730	952.12122	-434.48941	219.27151	956.14960	-705.07532	128.78099	960.85541	-680.24609	354.86435	961.14752	-842.17010	251.55609	1097.85132	-782.40948	80.59283	819.53186	-690.45471	146.49933	802.65210	-775.37866	93.24751	702.82037	-758.51923	120.18024	592.81616	-736.00287	229.79536	553.32599	-771.35449	118.42729	525.80072	-696.44739	174.23790	527.23260	-766.54688	110.96665	473.45685	-689.92596	143.81230	212.36385	-603.93292	95.87369	168.24483	-556.46704	79.02915	166.48671	-482.14539	120.38264	157.05487	-531.08472	170.10574	161.71457	-650.35004	224.64609	226.37651	-596.92847	202.18303	175.00830	-724.56482	210.02454	167.65910	-759.54114	447.40057	846.07422	-678.62366	379.60681	809.05280	-757.55994	440.10181	728.71826	-743.89130	413.53152	594.68414	-724.05103	309.35995	563.24872	-748.68054	417.53006	550.30365	-692.97833	355.75922	536.30292	-785.73657	425.97876	477.77548	-675.51044	417.23026	215.78204	-570.68231	455.59875	165.24167	-532.60602	465.54364	157.16714	-473.05942	412.38031	163.50514	-519.82867	372.71265	175.38861	-648.27533	325.00647	212.75168	-591.86786	338.72137	173.33650	-728.24341	349.75879	162.39746	-443.90350	448.31656	145.87563	-450.81842	74.93156	143.71951	-806.45593	82.60852	142.03070	-798.79114	457.49619	144.87202	
382	7.620	-39.76782	236.58444	1100.97925	-233.65640	83.37584	939.20673	-250.03845	376.49789	955.39349	-434.56189	219.43433	957.72931	-704.95850	128.52588	960.93219	-679.47681	354.70313	961.47321	-842.31836	251.21112	1097.74841	-782.26721	80.38971	819.33502	-690.48944	146.38773	802.55353	-775.41089	92.91354	702.79633	-758.69684	119.99943	592.63171	-736.36450	229.65381	553.21240	-771.51361	118.30240	525.69208	-696.58936	174.13173	527.21686	-766.57953	110.71753	473.32477	-690.01886	143.74649	212.33688	-603.82104	95.99007	168.32771	-556.47900	79.11536	166.56114	-482.18030	120.40825	157.11725	-531.08948	170.15974	161.69560	-650.43817	224.66888	226.37939	-596.93219	202.18112	175.01476	-724.59204	210.01888	167.62022	-759.62091	447.03436	846.10303	-678.78717	379.20892	809.02893	-757.60999	439.82217	728.74640	-743.97650	413.38324	594.64771	-724.17291	309.23608	563.12732	-748.80383	417.46271	550.41571	-693.11450	355.57385	536.30933	-785.87531	425.83136	477.80719	-675.54480	417.24924	215.82578	-570.67926	455.54050	165.20540	-532.61255	465.51917	157.21648	-473.07898	412.38705	163.51839	-519.84424	372.68747	175.39706	-648.26251	324.96973	212.75844	-591.88348	338.70197	173.31877	-728.24506	349.76608	162.40823	-443.85815	448.29279	145.75641	-450.82397	75.04671	143.64447	-806.44940	82.61259	142.04001	-798.77594	457.52707	144.86661	
383	7.640	-39.81110	236.60367	1102.52515	-233.35727	82.88177	942.47278	-250.14938	377.21530	958.90436	-434.66382	219.61823	959.49707	-704.83301	128.26747	961.02972	-678.73926	354.53525	961.80786	-842.48090	250.85657	1097.62219	-782.13861	80.18877	819.15552	-690.54858	146.28558	802.44818	-775.44855	92.54770	702.77576	-758.88055	119.77993	592.48511	-736.70325	229.53308	553.15936	-771.75763	118.14686	525.61206	-696.72235	174.01128	527.22931	-766.65704	110.47781	473.23050	-690.14185	143.66893	212.28514	-603.73279	96.05141	168.36227	-556.49139	79.15862	166.57115	-482.21689	120.42979	157.17737	-531.09143	170.19202	161.68726	-650.51538	224.64708	226.40631	-596.94104	202.17436	175.04070	-724.63757	209.99889	167.61096	-759.68152	446.65036	846.14185	-678.88965	378.82349	809.01776	-757.64526	439.47876	728.72876	-744.05151	413.27725	594.62445	-724.29565	309.11145	563.00732	-748.97217	417.39478	550.53210	-693.21936	355.38242	536.32367	-786.01337	425.65927	477.80621	-675.56445	417.26407	215.85648	-570.68311	455.47684	165.16447	-532.60022	465.50278	157.24602	-473.09406	412.40259	163.53125	-519.85004	372.66290	175.41013	-648.27130	324.96396	212.73721	-591.90869	338.68338	173.29973	-728.25854	349.77020	162.41855	-443.81619	448.26163	145.66135	-450.81995	75.16451	143.55014	-806.44153	82.59978	142.04529	-798.76563	457.57242	144.86694	
